<svg xmlns="http://www.w3.org/2000/svg" xml:space="preserve" viewBox="0 0 24 24">
  <path fill="none" d="M0 0h24v24H0z"/>
  <path fill="#39870c" d="M22.04 3.78c-.16-.95-.88-1.67-1.83-1.83-2.73-.45-7.3-.45-8.21-.45-.91 0-5.48 0-8.22.46-.95.15-1.67.87-1.82 1.82C1.5 6.52 1.5 11.09 1.5 12s0 5.48.46 8.22c.16.95.88 1.67 1.83 1.83 2.74.46 7.3.46 8.22.46.91 0 5.48 0 8.22-.46.95-.16 1.67-.88 1.83-1.83.46-2.74.46-7.3.46-8.22-.02-2.74-.02-5.48-.48-8.22z"/>
  <path fill="#fff" d="M16.5 7.35a.755.755 0 0 0-1.01.1l-4.4 4.95-2.65-2.3a.743.743 0 0 0-.97 0c-.28.24-.35.65-.16.97l3.2 5.38c.14.23.38.37.64.37s.51-.14.64-.36l4.89-8.09c.21-.35.13-.78-.18-1.02z"/>
</svg>
