<svg xmlns="http://www.w3.org/2000/svg" xml:space="preserve" baseProfile="tiny" version="1.2" viewBox="0 0 24 24">
  <path fill="none" d="M0 0h24v24H0z"/>
  <path fill="currentColor" d="M17 20H5V9h4a1 1 0 0 0 1-1V4h4.979l2-2H9.413a1 1 0 0 0-.707.293L3.293 7.707A1 1 0 0 0 3 8.414V21a1 1 0 0 0 1 1h14a1 1 0 0 0 1-1v-8.975l-2 2V20z"/>
  <path fill="currentColor" d="m21.938 5.28-2.215-2.216a1 1 0 0 0-1.414 0L9.802 11.57a.82.82 0 0 0-.198.32l-.591 3.771a.257.257 0 0 0 .325.325l3.777-.592a.81.81 0 0 0 .317-.196l8.505-8.504a1 1 0 0 0 0-1.414z"/>
</svg>