<svg xmlns="http://www.w3.org/2000/svg" xml:space="preserve" viewBox="0 0 24 24">
  <path fill="none" d="M0 0h24v24H0z"/>
  <path fill="#ffb612" d="M23.38 19.64 13.67 2.47c-.73-1.3-2.6-1.3-3.34 0L.62 19.64c-.72 1.28.2 2.86 1.67 2.86h19.43c1.46 0 2.38-1.58 1.66-2.86z"/>
  <path d="M10.54 17.45c0-.44.12-.82.36-1.12.24-.31.6-.46 1.09-.46.48 0 .85.14 1.1.4.25.27.38.66.38 1.18 0 .43-.12.8-.36 1.09-.24.29-.6.44-1.09.44-.48 0-.85-.13-1.1-.39-.25-.25-.38-.63-.38-1.14zm.31-10.27 2.48-.2-.22 5.51v2.63l-2.27.05V7.18z"/>
</svg>
