<svg xmlns="http://www.w3.org/2000/svg" xmlns:xlink="http://www.w3.org/1999/xlink" viewBox="0 0 64 64">
  <defs>
    <path id="a" d="M0 0h64v64H0z" class="cls-1"/>
  </defs>
  <defs>
    <clipPath id="b">
      <use xlink:href="#a" class="cls-1"/>
    </clipPath>
    <clipPath id="c">
      <use xlink:href="#a" class="cls-1"/>
    </clipPath>
  </defs>
  <g clip-path="url(#b)">
    <g clip-path="url(#c)">
      <path fill="currentColor" d="M58 15H29v-2c0-1.1-.9-2-2-2H12c-1.1 0-2 .9-2 2v4.69c7.13.47 40.09 2.62 40.59 2.75.28.07.38.21.4.34 0 .04.02.23-.01.23H4.53c-1.29 0-2.24 1.2-1.95 2.46l7.06 30c.27 1.16 1.18 1.54 2.36 1.54h46a2 2 0 0 0 2-2V17c0-1.1-.9-2-2-2"/>
    </g>
  </g>
</svg>