<svg xmlns="http://www.w3.org/2000/svg" xml:space="preserve" version="1.0" viewBox="0 0 64 64">
  <ellipse cx="32.001" cy="31.999" rx="5.341" ry="5.225"/>
  <path fill="currentColor" d="M53.856 14.115a4.788 4.788 0 0 0-3.977-3.972c-5.957-.993-15.893-.993-17.88-.993-1.987 0-11.923 0-17.884.993a4.788 4.788 0 0 0-3.972 3.972c-.993 5.963-.993 15.896-.993 17.883 0 1.988 0 11.922.993 17.883a4.787 4.787 0 0 0 3.972 3.973c5.961.996 15.897.996 17.883.996 1.988 0 11.924 0 17.881-.996a4.788 4.788 0 0 0 3.977-3.973c.994-5.961.994-15.895.994-17.883 0-5.962 0-11.92-.994-17.883zm-5.2 18.73c0 .477-.357 1.023-.793 1.215l-2.973 1.347c-.444.171-.958.671-1.143 1.11l-.166.398c-.184.44-.167 1.15.038 1.58l1.174 2.918c.184.44.055 1.072-.285 1.405l-1.351 1.321c-.341.333-.985.47-1.431.302l-3.064-1.106c-.438-.187-1.158-.193-1.6-.015l-.434.176c-.442.179-.94.69-1.105 1.137l-1.278 2.875c-.187.438-.73.796-1.207.796h-1.922c-.476 0-1.028-.354-1.227-.787l-1.364-2.878c-.178-.442-.685-.95-1.127-1.129l-.433-.175c-.442-.179-1.157-.163-1.591.035l-3 1.159c-.442.177-1.082.05-1.423-.283l-1.353-1.324c-.34-.333-.478-.969-.305-1.413l1.12-2.98c.193-.436.199-1.152.014-1.59l-.166-.395c-.186-.439-.704-.93-1.153-1.09l-2.963-1.262c-.44-.18-.801-.719-.801-1.195v-1.85c0-.476.357-1.022.793-1.213l2.967-1.34c.444-.17.96-.67 1.144-1.11l.168-.4c.185-.439.168-1.15-.036-1.58l-1.171-2.918c-.184-.44-.055-1.072.285-1.405l1.35-1.32c.34-.334.984-.47 1.43-.304l3.073 1.104c.439.186 1.159.192 1.6.012l.424-.172c.442-.18.939-.692 1.105-1.138l1.28-2.876c.188-.438.732-.796 1.208-.796h1.922c.476 0 1.028.354 1.226.787l1.363 2.882c.178.442.685.95 1.127 1.128l.431.175c.442.179 1.158.163 1.591-.035l3.003-1.158c.443-.177 1.083-.05 1.424.283l1.35 1.319c.34.333.477.969.305 1.413l-1.116 2.983c-.194.435-.2 1.15-.016 1.59l.169.4c.184.44.703.93 1.152 1.09l2.96 1.258c.44.18.801.718.801 1.195v1.844z"/>
</svg>