<svg xmlns="http://www.w3.org/2000/svg" viewBox="0 0 20 20">
  <path fill="currentColor" fill-rule="evenodd" d="M10 7.438A2.568 2.568 0 0 0 7.434 10 2.57 2.57 0 0 0 10 12.564 2.567 2.567 0 0 0 12.565 10 2.565 2.565 0 0 0 10 7.438zm8 2.978a.71.71 0 0 1-.382.596l-1.427.66a1.13 1.13 0 0 0-.548.545l-.08.195c-.089.216-.081.565.017.776l.564 1.431a.688.688 0 0 1-.137.69l-.648.648a.706.706 0 0 1-.688.148l-1.471-.543a1.142 1.142 0 0 0-.77-.007l-.207.086a1.093 1.093 0 0 0-.53.558l-.615 1.411a.685.685 0 0 1-.58.39h-.923a.704.704 0 0 1-.589-.386l-.656-1.412a1.142 1.142 0 0 0-.541-.554l-.208-.086a1.094 1.094 0 0 0-.764.017l-1.441.569a.685.685 0 0 1-.684-.139l-.65-.649a.712.712 0 0 1-.146-.693l.538-1.463c.093-.214.096-.565.007-.78l-.08-.193a1.09 1.09 0 0 0-.554-.535l-1.422-.619A.687.687 0 0 1 2 10.49v-.907a.71.71 0 0 1 .38-.596l1.425-.657c.215-.083.461-.329.55-.544l.08-.196c.09-.216.081-.565-.016-.776l-.563-1.431a.688.688 0 0 1 .136-.689l.648-.648a.705.705 0 0 1 .689-.149l1.475.541c.21.092.557.095.77.006l.203-.084c.21-.088.45-.339.53-.558l.615-1.411A.686.686 0 0 1 9.502 2h.923c.228 0 .494.174.589.386l.655 1.414c.085.217.329.466.541.554l.208.085c.211.088.555.08.763-.017l1.443-.568a.685.685 0 0 1 .684.139l.648.647a.71.71 0 0 1 .146.693l-.536 1.463a1.15 1.15 0 0 0-.007.781l.08.197c.09.215.337.455.554.533l1.421.618a.687.687 0 0 1 .386.586v.905z"/>
</svg>
